<svg width="131" height="131" viewBox="0 0 131 131" fill="none" xmlns="http://www.w3.org/2000/svg">
<path d="M21.8333 32.7498L55.1709 57.9251L55.182 57.9343C58.8837 60.6489 60.7356 62.007 62.7641 62.5317C64.557 62.9954 66.4416 62.9954 68.2345 62.5317C70.2647 62.0066 72.1221 60.6445 75.8303 57.9251C75.8303 57.9251 97.2134 41.5156 109.167 32.7498M16.375 86.2426V44.7592C16.375 38.6453 16.375 35.5861 17.5648 33.2509C18.6115 31.1968 20.2803 29.528 22.3344 28.4813C24.6696 27.2915 27.7288 27.2915 33.8427 27.2915H97.1594C103.273 27.2915 106.326 27.2915 108.661 28.4813C110.715 29.528 112.39 31.1968 113.436 33.2509C114.625 35.5838 114.625 38.6393 114.625 44.7413V86.261C114.625 92.363 114.625 95.4141 113.436 97.747C112.39 99.8011 110.715 101.473 108.661 102.519C106.328 103.708 103.277 103.708 97.1752 103.708H33.8248C27.7228 103.708 24.6673 103.708 22.3344 102.519C20.2803 101.473 18.6115 99.8011 17.5648 97.747C16.375 95.4118 16.375 92.3565 16.375 86.2426Z" stroke="#F6F6F6" stroke-width="10" stroke-linecap="round" stroke-linejoin="round"/>
</svg>
