<svg width="109" height="109" viewBox="0 0 109 109" fill="none" xmlns="http://www.w3.org/2000/svg">
<path d="M40.8676 12.2373C39.2098 8.09271 35.1956 5.375 30.7317 5.375H15.7171C10.0053 5.375 5.375 10.0042 5.375 15.716C5.375 64.2662 44.7338 103.625 93.284 103.625C98.9958 103.625 103.625 98.9942 103.625 93.2825L103.628 78.2654C103.628 73.8015 100.911 69.788 96.7659 68.1302L82.3753 62.376C78.6524 60.8869 74.4136 61.5571 71.3332 64.124L67.6192 67.2216C63.2817 70.8362 56.8997 70.5487 52.9072 66.5563L42.4492 56.0887C38.4568 52.0963 38.1618 45.7194 41.7763 41.3819L44.8733 37.6681C47.4403 34.5878 48.1164 30.3477 46.6272 26.6248L40.8676 12.2373Z" stroke="#F6F6F6" stroke-width="10" stroke-linecap="round" stroke-linejoin="round"/>
</svg>
