<svg width="256" height="253" viewBox="0 0 256 253" fill="none" xmlns="http://www.w3.org/2000/svg">
<path d="M130.512 179.105L115.968 131.68L129.809 129.505L130.512 179.105Z" fill="#EEEEEE"/>
<path d="M75.959 140.649L120.047 117.914L124.646 131.149L75.959 140.649Z" fill="#EEEEEE"/>
<path d="M172.419 47.5494L135.501 131.462L113.443 117.736L172.419 47.5494Z" fill="#EEEEEE"/>
<path d="M48.4552 76.4113L132.368 113.329L118.641 135.388L48.4552 76.4113Z" fill="#EEEEEE"/>
<path d="M76.7888 201.224L113.707 117.311L135.765 131.038L76.7888 201.224Z" fill="#EEEEEE"/>
<path d="M208.073 175.74L124.16 138.822L137.887 116.763L208.073 175.74Z" fill="#EEEEEE"/>
<path d="M112.823 81.9977L127.367 129.423L113.526 131.598L112.823 81.9977Z" fill="#EEEEEE"/>
<path d="M167.148 112.901L121.841 133.098L118.001 119.624L167.148 112.901Z" fill="#EEEEEE"/>
</svg>
