<svg width="708" height="848" viewBox="0 0 708 848" fill="none" xmlns="http://www.w3.org/2000/svg">
<path d="M177.782 218.275C179.782 207.275 212.282 171.775 231.782 154.775C251.282 137.775 248.282 137.775 262.282 131.275C276.282 124.775 288.664 115.384 295.282 142.275C301.901 169.167 303.308 169.292 329.282 177.775C355.256 186.258 376.282 173.775 381.282 166.775C386.282 159.775 389.282 163.775 388.282 131.275C387.282 98.7754 379.656 103.042 364.782 89.7754C349.908 76.5086 338.171 26.4995 357.782 24.2754C377.393 22.0513 390.782 33.7753 402.282 42.2754C413.782 50.7754 416.282 58.7754 420.782 74.2754C425.282 89.7754 426.782 99.7754 420.782 117.775C414.782 135.775 415.282 135.275 420.782 148.275C426.282 161.275 435.282 173.775 446.282 180.775C457.282 187.775 464.282 201.775 484.282 207.275C504.282 212.775 512.782 218.275 525.782 218.275C538.782 218.275 553.782 218.275 567.782 212.775C581.782 207.275 580.782 202.775 590.782 191.775C600.782 180.775 599.282 182.275 625.282 177.775C651.282 173.275 677.282 178.775 688.782 166.775C700.282 154.775 726.782 142.275 726.782 142.275L815.782 225.775V422.775L740.282 568.275C740.282 568.275 709.628 554.478 688.782 549.775C664.517 544.301 649.696 540.008 625.282 544.775C607.238 548.299 595.516 550.553 581.782 562.775C566.972 575.956 565.173 589.186 558.282 607.775C549.298 632.013 562.391 652.968 545.782 672.775C535.515 685.02 527.165 693.028 511.282 694.775C495.628 696.498 483.506 693.254 473.282 681.275C464.488 670.971 468.295 660.714 464.282 647.775C459.36 631.906 461.004 620.029 449.782 607.775C438.093 595.011 426.052 594.058 409.282 589.775C384.498 583.447 360.282 592.775 343.782 589.775C327.282 586.775 327.782 578.275 316.782 562.775C305.782 547.275 302.782 538.275 295.282 531.775C287.782 525.275 278.282 523.275 270.782 521.775C263.282 520.275 260.282 518.775 246.282 531.775C232.282 544.775 231.782 551.275 237.282 562.775C242.782 574.275 227.282 584.775 216.282 580.775C205.282 576.775 202.782 571.775 194.782 562.775C186.782 553.775 183.782 531.775 194.782 515.775C205.782 499.775 217.282 501.775 210.282 463.275C203.282 424.775 202.282 425.775 189.282 422.775C176.282 419.775 189.282 420.775 163.782 422.775C138.282 424.775 143.782 427.275 133.282 432.275C122.782 437.275 105.782 472.275 89.7821 479.275C73.7819 486.275 53.7822 479.275 50.2821 472.275C46.7819 465.275 46.2822 467.275 50.2821 439.775C54.2819 412.275 102.782 410.775 110.782 398.275C118.782 385.775 124.5 379 129.5 362C134.5 345 91.7822 300.275 77.2821 294.775C62.7819 289.275 45.1959 290.426 29.2821 284.275C13.3682 278.125 0 259.775 0 259.775C0 259.775 -0.000105858 241.775 4.5 234.275C9.00011 226.775 9.89619 224.398 29.2821 218.275C48.6679 212.153 77.2821 203.275 105.782 207.275C134.282 211.275 175.782 229.275 177.782 218.275Z" fill="#001C34"/>
<path d="M36.2889 35.0002C46.8911 22.0317 61.4174 22.6316 77.9999 25.0002C88.5 26.5 92.8369 27.3487 104 32C110 34.5 111 35.0002 115 37C120.101 39.5502 120.5 39 127.5 44.5C138.275 52.9661 143.684 55.9134 151 67.5002C157.531 77.844 165.5 113 165.5 113C165.5 113 139.866 81.5393 122.789 76.5002C108.194 72.1936 84.2889 70.5002 84.2889 70.5002C63.7795 69.9272 43.2577 95.3394 32.2889 78.0002C27.9283 71.107 27.8311 65.6441 28.2889 57.5002C28.8124 48.1892 30.3864 42.2202 36.2889 35.0002Z" fill="#001C34"/>
<path d="M522 39C522.654 34.0226 522.839 31.0313 525 26.5C526.866 22.5866 528.561 20.6874 531.5 17.5C535.076 13.6214 537.512 11.7737 542 8.99999C545.863 6.61218 548.159 5.3346 552.5 3.99999C559.789 1.75926 565.623 -1.1802 572 2.99999C574.659 4.74254 576.131 6.13147 577.5 8.99999C579.519 13.2291 578.479 16.4171 577.5 21C576.26 26.8076 573.506 29.3781 570.5 34.5C567.787 39.1243 566.114 41.6351 563 46C558.325 52.5541 550 62 550 62L524.5 95C524.5 95 522.279 70.649 522 55C521.889 48.7526 521.186 45.1951 522 39Z" fill="#001C34"/>
<path d="M570.5 632C570.5 632 585.648 636.146 593.5 642C603.112 649.166 605.987 656.128 612 666.5C617.967 676.792 619.714 683.402 624 694.5C628.317 705.675 630.94 711.918 634 723.5C636.945 734.645 637.864 741.09 639.5 752.5C641.282 764.924 642.837 771.953 642.5 784.5C642.171 796.729 642.264 804.034 638 815.5C634.708 824.353 631.955 829.168 626 836.5C623.475 839.61 622.451 841.964 619 844C615.533 846.046 612.978 845.881 609 846.5C602.247 847.55 598.201 847.842 591.5 846.5C586.838 845.566 584.168 844.788 580 842.5C575.857 840.226 572.946 839.045 570.5 835C567.842 830.605 568.245 827.13 568.5 822C568.804 815.892 570.964 812.767 573 807C579.251 789.291 590.444 782.586 595.5 764.5C601.024 744.74 599.404 732.429 597.5 712C595.72 692.894 593.866 681.918 587 664C581.969 650.871 570.5 632 570.5 632Z" fill="#001C34"/>
<path d="M72.5001 551.5C75.1356 533.154 86.0001 506 86.0001 506C86.0001 506 79.1584 531.713 79.5001 548.5C79.68 557.339 79.453 562.534 82.0001 571C84.6674 579.865 93.0001 592 93.0001 592C93.0001 592 97.2299 598.345 98.0001 603C98.7359 607.448 97.0001 614.5 97.0001 614.5C97.0001 614.5 96.1601 620.984 93.0001 622C90.2368 622.889 88.4325 621.084 86.0001 619.5C82.4985 617.219 81.7509 614.521 79.5001 611C77.242 607.468 75.8942 605.454 74.5001 601.5C73.2394 597.924 73.1268 595.739 72.5001 592C70.9156 582.546 70.6903 577.081 71.0001 567.5C71.203 561.227 71.6078 557.712 72.5001 551.5Z" fill="#001C34"/>
</svg>
